<svg width="20" height="20" viewBox="0 0 20 20" fill="none" xmlns="http://www.w3.org/2000/svg">
<g id="Chevron Circle" clip-path="url(#clip0_5_161)">
<path id="Shape" d="M10 0C15.5228 0 20 4.47715 20 10C20 15.5228 15.5228 20 10 20C4.47715 20 0 15.5228 0 10C0 4.47715 4.47715 0 10 0ZM10 1.5C5.30558 1.5 1.5 5.30558 1.5 10C1.5 14.6944 5.30558 18.5 10 18.5C14.6944 18.5 18.5 14.6944 18.5 10C18.5 5.30558 14.6944 1.5 10 1.5ZM5.46967 7.96967C5.76256 7.67678 6.23744 7.67678 6.53033 7.96967L10 11.4393L13.4697 7.96967C13.7626 7.67678 14.2374 7.67678 14.5303 7.96967C14.8232 8.26256 14.8232 8.73744 14.5303 9.03033L10.5303 13.0303C10.2374 13.3232 9.76256 13.3232 9.46967 13.0303L5.46967 9.03033C5.17678 8.73744 5.17678 8.26256 5.46967 7.96967Z" fill="#8D99AE"/>
</g>
<defs>
<clipPath id="clip0_5_161">
<rect width="20" height="20" fill="white"/>
</clipPath>
</defs>
</svg>
